# xmcd
#
# Track frame offsets:
#	150
#	13162
#	28323
#	39201
#	56263
#	71256
#	82882
#	99376
#	114424
#	125125
#	146953
#	161747
#	181557
#	192113
#	210982
#
# Disc length: 2981 seconds
#
# Revision: 1
# Processed by: cddbd v1.4PL0 Copyright (c) Steve Scherf et al.
# Submitted via: audiograbber 1.82.02
#
DISCID=c10ba30f
DTITLE=Melissa Gibson - Welcome To Stay
DYEAR=2003
DGENRE=Country
TTITLE0=Miles To Go
TTITLE1=Welcome To Stay
TTITLE2=No Room For Blue
TTITLE3=Even For You
TTITLE4=Table For Two
TTITLE5=Smoke And Mirrors
TTITLE6=Shade
TTITLE7=OK By Me
TTITLE8=The Right Road
TTITLE9=The Journey
TTITLE10=Too Far Away
TTITLE11=As You Leave
TTITLE12=Turn Back Now
TTITLE13=These Woods
TTITLE14=Sleep Well Tonight
EXTD=singer/songwriter Melissa Gibson\nproduced by Vaughn Lofstead
EXTT0=
EXTT1=
EXTT2=
EXTT3=
EXTT4=
EXTT5=
EXTT6=
EXTT7=
EXTT8=
EXTT9=
EXTT10=
EXTT11=
EXTT12=
EXTT13=
EXTT14=
PLAYORDER=
